<?xml version="1.0" standalone="no"?>
<!DOCTYPE svg PUBLIC "-//W3C//DTD SVG 20010904//EN"
 "http://www.w3.org/TR/2001/REC-SVG-20010904/DTD/svg10.dtd">
<svg version="1.0" xmlns="http://www.w3.org/2000/svg"
 width="668.000000pt" height="256.000000pt" viewBox="0 0 668.000000 256.000000"
 preserveAspectRatio="xMidYMid meet">
<metadata>
Created by potrace 1.16, written by Peter Selinger 2001-2019
</metadata>
<g transform="translate(0.000000,256.000000) scale(0.100000,-0.100000)"
fill="#ffffff" stroke="none">
<path d="M440 2150 c0 -6 32 -10 75 -10 43 0 75 4 75 10 0 6 -32 10 -75 10
-43 0 -75 -4 -75 -10z"/>
<path d="M2020 2150 c0 -6 32 -10 75 -10 43 0 75 4 75 10 0 6 -32 10 -75 10
-43 0 -75 -4 -75 -10z"/>
<path d="M370 1965 c0 -77 4 -125 10 -125 6 0 10 48 10 125 0 77 -4 125 -10
125 -6 0 -10 -48 -10 -125z"/>
<path d="M654 2077 c-11 -28 1 -230 14 -235 9 -3 12 26 12 122 0 80 -4 126
-10 126 -6 0 -13 -6 -16 -13z"/>
<path d="M1944 2077 c-11 -28 1 -230 14 -235 9 -3 12 26 12 122 0 80 -4 126
-10 126 -6 0 -13 -6 -16 -13z"/>
<path d="M2230 1965 c0 -77 4 -125 10 -125 6 0 10 48 10 125 0 77 -4 125 -10
125 -6 0 -10 -48 -10 -125z"/>
<path d="M370 1685 c0 -77 4 -125 10 -125 6 0 10 48 10 125 0 77 -4 125 -10
125 -6 0 -10 -48 -10 -125z"/>
<path d="M654 1797 c-11 -28 1 -230 14 -235 9 -3 12 26 12 122 0 80 -4 126
-10 126 -6 0 -13 -6 -16 -13z"/>
<path d="M1944 1797 c-11 -28 1 -230 14 -235 9 -3 12 26 12 122 0 80 -4 126
-10 126 -6 0 -13 -6 -16 -13z"/>
<path d="M2230 1685 c0 -77 4 -125 10 -125 6 0 10 48 10 125 0 77 -4 125 -10
125 -6 0 -10 -48 -10 -125z"/>
<path d="M870 1590 c0 -6 80 -10 220 -10 140 0 220 4 220 10 0 6 -80 10 -220
10 -140 0 -220 -4 -220 -10z"/>
<path d="M1730 1590 c0 -6 32 -10 75 -10 43 0 75 4 75 10 0 6 -32 10 -75 10
-43 0 -75 -4 -75 -10z"/>
<path d="M2310 1590 c0 -6 55 -10 145 -10 90 0 145 4 145 10 0 6 -55 10 -145
10 -90 0 -145 -4 -145 -10z"/>
<path d="M3020 1590 c0 -6 80 -10 220 -10 140 0 220 4 220 10 0 6 -80 10 -220
10 -140 0 -220 -4 -220 -10z"/>
<path d="M3600 1590 c0 -6 32 -10 75 -10 43 0 75 4 75 10 0 6 -32 10 -75 10
-43 0 -75 -4 -75 -10z"/>
<path d="M3880 1590 c0 -6 57 -10 150 -10 93 0 150 4 150 10 0 6 -57 10 -150
10 -93 0 -150 -4 -150 -10z"/>
<path d="M4600 1590 c0 -6 127 -10 360 -10 233 0 360 4 360 10 0 6 -127 10
-360 10 -233 0 -360 -4 -360 -10z"/>
<path d="M6170 1590 c0 -6 57 -10 150 -10 93 0 150 4 150 10 0 6 -57 10 -150
10 -93 0 -150 -4 -150 -10z"/>
<path d="M370 1405 c0 -77 4 -125 10 -125 6 0 10 48 10 125 0 77 -4 125 -10
125 -6 0 -10 -48 -10 -125z"/>
<path d="M654 1517 c-11 -28 1 -230 14 -235 9 -3 12 26 12 122 0 80 -4 126
-10 126 -6 0 -13 -6 -16 -13z"/>
<path d="M1370 1405 c0 -97 3 -126 13 -122 9 3 12 36 12 122 0 86 -3 119 -12
123 -10 3 -13 -26 -13 -123z"/>
<path d="M1660 1405 c0 -77 4 -125 10 -125 6 0 10 48 10 125 0 77 -4 125 -10
125 -6 0 -10 -48 -10 -125z"/>
<path d="M1944 1517 c-11 -28 1 -230 14 -235 9 -3 12 26 12 122 0 80 -4 126
-10 126 -6 0 -13 -6 -16 -13z"/>
<path d="M2227 1523 c-4 -3 -7 -21 -7 -40 0 -23 5 -33 15 -33 11 0 15 11 15
40 0 38 -8 49 -23 33z"/>
<path d="M3807 1523 c-4 -3 -7 -21 -7 -40 0 -23 5 -33 15 -33 11 0 15 11 15
40 0 38 -8 49 -23 33z"/>
<path d="M787 1420 c-34 -75 -42 -100 -31 -100 9 0 33 38 60 96 24 52 44 97
44 100 0 2 -6 4 -13 4 -8 0 -34 -45 -60 -100z"/>
<path d="M1090 1453 c-59 -125 -62 -133 -46 -133 12 0 47 63 92 168 12 27 12
32 0 32 -8 0 -29 -30 -46 -67z"/>
<path d="M2610 1513 c-1 -23 85 -193 96 -193 8 0 14 2 14 4 0 16 -92 196 -100
196 -5 0 -10 -3 -10 -7z"/>
<path d="M2937 1420 c-34 -75 -42 -100 -31 -100 9 0 33 38 60 96 24 52 44 97
44 100 0 2 -6 4 -13 4 -8 0 -34 -45 -60 -100z"/>
<path d="M3470 1513 c-1 -23 85 -193 96 -193 8 0 14 2 14 4 0 16 -92 196 -100
196 -5 0 -10 -3 -10 -7z"/>
<path d="M4194 1488 c44 -104 80 -168 92 -168 14 0 1 35 -57 153 -27 55 -59
68 -35 15z"/>
<path d="M4514 1424 c-24 -52 -44 -97 -44 -100 0 -2 6 -4 14 -4 7 0 32 42 55
93 44 99 47 107 30 107 -5 0 -30 -43 -55 -96z"/>
<path d="M5054 1488 c44 -104 80 -168 92 -168 14 0 1 35 -57 153 -27 55 -59
68 -35 15z"/>
<path d="M5330 1513 c-1 -21 87 -192 98 -193 18 0 9 25 -39 123 -34 66 -58 96
-59 70z"/>
<path d="M5671 1443 c-48 -98 -57 -123 -39 -123 7 0 32 42 56 94 45 99 47 106
32 106 -5 0 -27 -35 -49 -77z"/>
<path d="M5760 1513 c-1 -21 87 -192 98 -193 18 0 9 25 -39 123 -34 66 -58 96
-59 70z"/>
<path d="M6101 1443 c-48 -98 -57 -123 -39 -123 7 0 32 42 56 94 45 99 47 106
32 106 -5 0 -27 -35 -49 -77z"/>
<path d="M6377 1420 c-34 -75 -42 -100 -31 -100 9 0 33 38 60 96 24 52 44 97
44 100 0 2 -6 4 -13 4 -8 0 -34 -45 -60 -100z"/>
<path d="M2310 1310 c0 -6 32 -10 75 -10 43 0 75 4 75 10 0 6 -32 10 -75 10
-43 0 -75 -4 -75 -10z"/>
<path d="M3170 1310 c0 -6 32 -10 75 -10 43 0 75 4 75 10 0 6 -32 10 -75 10
-43 0 -75 -4 -75 -10z"/>
<path d="M3880 1310 c0 -6 32 -10 75 -10 43 0 75 4 75 10 0 6 -32 10 -75 10
-43 0 -75 -4 -75 -10z"/>
<path d="M4740 1310 c0 -6 32 -10 75 -10 43 0 75 4 75 10 0 6 -32 10 -75 10
-43 0 -75 -4 -75 -10z"/>
<path d="M2495 1243 c29 -69 29 -117 -1 -190 -3 -7 1 -13 9 -13 9 0 23 19 32
45 19 50 15 113 -11 153 -17 26 -40 30 -29 5z"/>
<path d="M4664 1225 c-18 -45 -18 -118 1 -155 18 -36 41 -41 29 -7 -4 12 -8
51 -8 87 0 36 4 75 8 88 14 37 -13 26 -30 -13z"/>
<path d="M4936 1238 c4 -13 8 -52 8 -88 0 -36 -4 -75 -8 -87 -12 -34 11 -29
29 7 19 37 19 110 1 155 -17 39 -44 50 -30 13z"/>
<path d="M370 1125 c0 -77 4 -125 10 -125 6 0 10 48 10 125 0 77 -4 125 -10
125 -6 0 -10 -48 -10 -125z"/>
<path d="M1084 1237 c-11 -28 1 -230 14 -235 9 -3 12 26 12 122 0 80 -4 126
-10 126 -6 0 -13 -6 -16 -13z"/>
<path d="M1370 1125 c0 -97 3 -126 13 -122 9 3 12 36 12 122 0 86 -3 119 -12
123 -10 3 -13 -26 -13 -123z"/>
<path d="M1660 1125 c0 -77 4 -125 10 -125 6 0 10 48 10 125 0 77 -4 125 -10
125 -6 0 -10 -48 -10 -125z"/>
<path d="M1944 1237 c-11 -28 1 -230 14 -235 9 -3 12 26 12 122 0 80 -4 126
-10 126 -6 0 -13 -6 -16 -13z"/>
<path d="M2230 1125 c0 -77 4 -125 10 -125 6 0 10 48 10 125 0 77 -4 125 -10
125 -6 0 -10 -48 -10 -125z"/>
<path d="M2804 1237 c-11 -28 1 -230 14 -235 9 -3 12 26 12 122 0 80 -4 126
-10 126 -6 0 -13 -6 -16 -13z"/>
<path d="M3810 1125 c0 -77 4 -125 10 -125 6 0 10 48 10 125 0 77 -4 125 -10
125 -6 0 -10 -48 -10 -125z"/>
<path d="M4094 1237 c-11 -28 1 -230 14 -235 9 -3 12 26 12 122 0 80 -4 126
-10 126 -6 0 -13 -6 -16 -13z"/>
<path d="M4380 1125 c0 -77 4 -125 10 -125 6 0 10 48 10 125 0 77 -4 125 -10
125 -6 0 -10 -48 -10 -125z"/>
<path d="M3521 1163 c-48 -98 -57 -123 -39 -123 7 0 32 42 56 94 45 99 47 106
32 106 -5 0 -27 -35 -49 -77z"/>
<path d="M5190 1233 c-1 -23 85 -193 96 -193 8 0 14 2 14 4 0 16 -92 196 -100
196 -5 0 -10 -3 -10 -7z"/>
<path d="M5470 1228 c0 -7 10 -47 23 -88 18 -58 27 -75 41 -75 15 0 24 17 42
79 28 93 28 96 11 96 -9 0 -22 -28 -34 -72 l-19 -73 -19 73 c-11 43 -24 72
-32 72 -7 0 -13 -6 -13 -12z"/>
<path d="M5900 1228 c0 -7 10 -47 23 -88 18 -58 27 -75 41 -75 15 0 24 17 42
79 28 93 28 96 11 96 -9 0 -22 -28 -34 -72 l-19 -73 -19 73 c-11 43 -24 72
-32 72 -7 0 -13 -6 -13 -12z"/>
<path d="M6234 1144 c-24 -52 -44 -97 -44 -100 0 -2 6 -4 14 -4 7 0 32 42 55
93 44 99 47 107 30 107 -5 0 -30 -43 -55 -96z"/>
<path d="M953 1176 c-83 -35 -85 -42 -19 -71 62 -28 76 -30 76 -15 0 6 -19 19
-42 29 l-42 17 42 17 c23 9 42 24 42 32 0 8 -1 15 -2 14 -2 0 -27 -11 -55 -23z"/>
<path d="M1450 1030 c0 -6 32 -10 75 -10 43 0 75 4 75 10 0 6 -32 10 -75 10
-43 0 -75 -4 -75 -10z"/>
<path d="M2310 1030 c0 -6 32 -10 75 -10 43 0 75 4 75 10 0 6 -32 10 -75 10
-43 0 -75 -4 -75 -10z"/>
<path d="M3170 1030 c0 -6 55 -10 145 -10 90 0 145 4 145 10 0 6 -55 10 -145
10 -90 0 -145 -4 -145 -10z"/>
<path d="M4740 1030 c0 -6 32 -10 75 -10 43 0 75 4 75 10 0 6 -32 10 -75 10
-43 0 -75 -4 -75 -10z"/>
<path d="M370 845 c0 -77 4 -125 10 -125 6 0 10 48 10 125 0 77 -4 125 -10
125 -6 0 -10 -48 -10 -125z"/>
<path d="M654 957 c-11 -28 1 -230 14 -235 9 -3 12 26 12 122 0 80 -4 126 -10
126 -6 0 -13 -6 -16 -13z"/>
<path d="M1944 957 c-11 -28 1 -230 14 -235 9 -3 12 26 12 122 0 80 -4 126
-10 126 -6 0 -13 -6 -16 -13z"/>
<path d="M3520 845 c0 -77 4 -125 10 -125 6 0 10 48 10 125 0 77 -4 125 -10
125 -6 0 -10 -48 -10 -125z"/>
<path d="M3810 845 c0 -77 4 -125 10 -125 6 0 10 48 10 125 0 77 -4 125 -10
125 -6 0 -10 -48 -10 -125z"/>
<path d="M4094 957 c-11 -28 1 -230 14 -235 9 -3 12 26 12 122 0 80 -4 126
-10 126 -6 0 -13 -6 -16 -13z"/>
<path d="M4380 845 c0 -77 4 -125 10 -125 6 0 10 48 10 125 0 77 -4 125 -10
125 -6 0 -10 -48 -10 -125z"/>
<path d="M754 928 c44 -104 80 -168 92 -168 14 0 1 35 -57 153 -27 55 -59 68
-35 15z"/>
<path d="M1030 956 c0 -3 20 -48 44 -100 27 -58 51 -96 60 -96 11 0 3 25 -31
100 -26 55 -52 100 -60 100 -7 0 -13 -2 -13 -4z"/>
<path d="M1184 928 c44 -104 80 -168 92 -168 14 0 1 35 -57 153 -27 55 -59 68
-35 15z"/>
<path d="M2661 883 c-48 -98 -57 -123 -39 -123 7 0 32 42 56 94 45 99 47 106
32 106 -5 0 -27 -35 -49 -77z"/>
<path d="M2904 928 c44 -104 80 -168 92 -168 14 0 1 35 -57 153 -27 55 -59 68
-35 15z"/>
<path d="M4470 953 c-1 -21 87 -192 98 -193 18 0 9 25 -39 123 -34 66 -58 96
-59 70z"/>
<path d="M5087 860 c-34 -75 -42 -100 -31 -100 9 0 33 38 60 96 24 52 44 97
44 100 0 2 -6 4 -13 4 -8 0 -34 -45 -60 -100z"/>
<path d="M5330 953 c-1 -21 87 -192 98 -193 18 0 9 25 -39 123 -34 66 -58 96
-59 70z"/>
<path d="M5671 883 c-48 -98 -57 -123 -39 -123 7 0 32 42 56 94 45 99 47 106
32 106 -5 0 -27 -35 -49 -77z"/>
<path d="M5760 953 c-1 -21 87 -192 98 -193 18 0 9 25 -39 123 -34 66 -58 96
-59 70z"/>
<path d="M6101 883 c-48 -98 -57 -123 -39 -123 7 0 32 42 56 94 45 99 47 106
32 106 -5 0 -27 -35 -49 -77z"/>
<path d="M1640 808 c0 -13 -3 -33 -6 -45 -9 -33 20 -30 34 2 18 40 15 65 -8
65 -14 0 -20 -7 -20 -22z"/>
<path d="M2210 805 c0 -18 5 -25 20 -25 15 0 20 7 20 25 0 18 -5 25 -20 25
-15 0 -20 -7 -20 -25z"/>
<path d="M440 750 c0 -6 32 -10 75 -10 43 0 75 4 75 10 0 6 -32 10 -75 10 -43
0 -75 -4 -75 -10z"/>
<path d="M870 750 c0 -6 32 -10 75 -10 43 0 75 4 75 10 0 6 -32 10 -75 10 -43
0 -75 -4 -75 -10z"/>
<path d="M1300 750 c0 -6 57 -10 150 -10 93 0 150 4 150 10 0 6 -57 10 -150
10 -93 0 -150 -4 -150 -10z"/>
<path d="M1730 750 c0 -6 32 -10 75 -10 43 0 75 4 75 10 0 6 -32 10 -75 10
-43 0 -75 -4 -75 -10z"/>
<path d="M2020 750 c0 -6 32 -10 75 -10 43 0 75 4 75 10 0 6 -32 10 -75 10
-43 0 -75 -4 -75 -10z"/>
<path d="M2310 750 c0 -6 55 -10 145 -10 90 0 145 4 145 10 0 6 -55 10 -145
10 -90 0 -145 -4 -145 -10z"/>
<path d="M3020 750 c0 -6 80 -10 220 -10 140 0 220 4 220 10 0 6 -80 10 -220
10 -140 0 -220 -4 -220 -10z"/>
<path d="M3600 750 c0 -6 32 -10 75 -10 43 0 75 4 75 10 0 6 -32 10 -75 10
-43 0 -75 -4 -75 -10z"/>
<path d="M4170 750 c0 -6 32 -10 75 -10 43 0 75 4 75 10 0 6 -32 10 -75 10
-43 0 -75 -4 -75 -10z"/>
<path d="M4600 750 c0 -6 78 -10 215 -10 137 0 215 4 215 10 0 6 -78 10 -215
10 -137 0 -215 -4 -215 -10z"/>
<path d="M5460 750 c0 -6 32 -10 75 -10 43 0 75 4 75 10 0 6 -32 10 -75 10
-43 0 -75 -4 -75 -10z"/>
<path d="M5890 750 c0 -6 32 -10 75 -10 43 0 75 4 75 10 0 6 -32 10 -75 10
-43 0 -75 -4 -75 -10z"/>
</g>
</svg>
